# xmcd
#
# Track frame offsets:
#	150
#	16474
#	32814
#	47124
#	62651
#	77782
#	90004
#	101726
#	114519
#	128184
#	139172
#	149630
#	167448
#	185403
#	199505
#	213988
#	229202
#	243040
#	254555
#	270713
#	289002
#	303771
#	315933
#	326881
#	338430
#
# Disc length: 4725 seconds
#
# Revision: 3
# Processed by: cddbd v1.5.2PL0 Copyright (c) Steve Scherf et al.
# Submitted via: EasyCDDAExtractor 11.1.0.1
#
DISCID=5d127319
DTITLE=Teddy Edelmann - 100 Go'e 2
DYEAR=1900
DGENRE=Country
TTITLE0=Fed Rock Og En Lille En Til Næsen
TTITLE1=Hvorfor Kærligheden Brister
TTITLE2=En Grå Dag
TTITLE3=De Rejste Vestpå
TTITLE4=Fyrre År
TTITLE5=Længes Tilbage Til Vesterbro
TTITLE6=Giv Verden En Chance
TTITLE7=Nul Pardon
TTITLE8=Mit Tavse Råb
TTITLE9=Stik Ham En Mønt Til En Øl
TTITLE10=Når Din Dag Er Forbi
TTITLE11=Vi Stjæler En Sjæler
TTITLE12=Gadens Gode Engel
TTITLE13=Sådan Er Min Hverdag
TTITLE14=Stoney
TTITLE15=Byens Hjerter Banker
TTITLE16=Er Du Egentlig Til Noget
TTITLE17=Armstrong
TTITLE18=Ensom Vandrer
TTITLE19=Mellem Folk Der Kan Forstå
TTITLE20=Kvinde Livfulde Kvinde
TTITLE21=Vi Lever Livet By Night
TTITLE22=Intet Er Født Til At Leve Evigt
TTITLE23=Diesel Bryllup
TTITLE24=Giv Mig Styrke Giv Mig Mod
EXTD=
EXTT0=
EXTT1=
EXTT2=
EXTT3=
EXTT4=
EXTT5=
EXTT6=
EXTT7=
EXTT8=
EXTT9=
EXTT10=
EXTT11=
EXTT12=
EXTT13=
EXTT14=
EXTT15=
EXTT16=
EXTT17=
EXTT18=
EXTT19=
EXTT20=
EXTT21=
EXTT22=
EXTT23=
EXTT24=
PLAYORDER=
